# xmcd
#
# Track frame offsets:
#	150
#	16004
#	31281
#	45025
#	68062
#	81520
#	100505
#	119622
#	138574
#	155574
#	170243
#	186924
#	201271
#	211156
#	225316
#	236609
#
# Disc length: 3337 seconds
#
# Revision: 0
# Processed by: cddbd v1.5.2PL0 Copyright (c) Steve Scherf et al.
# Submitted via: EasyCDDAExtractor 16.0.8.2
#
DISCID=d00d0710
DTITLE=Συλλογικός δίσκος - Μέσ' στου Αιγαίου τα νησιά 2
DYEAR=1999
DGENRE=Παραδοσιακή
TTITLE0=Κονιτοπούλου Ειρήνη - Θα πάω να βρω το μαουκά
TTITLE1=Κονιτόπουλος Γιώργος - Στο σπίτι μου το πατρικό
TTITLE2=Σκουλαξινού Μαρία - Δωδεκάνησα
TTITLE3=Κονιτοπούλου Ειρήνη - Ντάρι ντάρι
TTITLE4=Παληός Γιάννης - Σγουρέ βασιλικέ μου
TTITLE5=Σκουλαξινού Μαρία - Μπάλλος [παραδοσιακό]
TTITLE6=Κονιτόπουλος Γιώργος - Το ρακιντζό
TTITLE7=Ναύτης Βαγγέλης - Αυθεντικός μπάλλος Σερίφου [παραδ.]
TTITLE8=Χατζηδάκη Δικαία - Το πονεμένο στήθος μου-Ο ήλιος βασιλεύει
TTITLE9=Κονιτοπούλου Αγγελική - Ω! Παναγιά Κανάλα
TTITLE10=Κουκουλάρη Νίκη - Συλιβριανό [αραδοσιακό]
TTITLE11=Χατζηδάκη Αιμιλία - Με το φεγγάρι περπατώ (Ξενενής)
TTITLE12=Ιωσηφέλης Γιώργος - Θάλασσα
TTITLE13=Κονιτοπούλου Ειρήνη - Τα ματάκια σου μου λένε
TTITLE14=Χατζηδάκη Δικαία - Βάρκα μου μπογιατισμένη
TTITLE15=Χατζηδάκη Αιμιλία - Ω! Παναγιά Γαλατζιανή
EXTD=YEAR: 1999\n
EXTT0=
EXTT1=
EXTT2=
EXTT3=
EXTT4=
EXTT5=
EXTT6=
EXTT7=
EXTT8=
EXTT9=
EXTT10=
EXTT11=
EXTT12=
EXTT13=
EXTT14=
EXTT15=
PLAYORDER=
